<svg width="134" height="91" viewBox="0 0 134 91" fill="none" xmlns="http://www.w3.org/2000/svg">
<path d="M4.7458 86L0.731805 73.4H2.8018L5.23181 81.284C5.3038 81.476 5.3698 81.704 5.42981 81.968C5.48981 82.22 5.5438 82.478 5.5918 82.742C5.6398 83.006 5.6818 83.252 5.71781 83.48C5.7658 83.708 5.8078 83.894 5.84381 84.038L5.3218 84.02C5.5018 83.384 5.6398 82.892 5.7358 82.544C5.84381 82.196 5.92781 81.932 5.9878 81.752C6.0478 81.56 6.1018 81.398 6.14981 81.266L8.41781 75.578H10.1638L12.3598 81.266C12.4798 81.554 12.5818 81.842 12.6658 82.13C12.7618 82.406 12.8458 82.688 12.9178 82.976C12.9898 83.252 13.0678 83.546 13.1518 83.858L12.6838 83.984C12.7438 83.66 12.7858 83.408 12.8098 83.228C12.8458 83.036 12.8758 82.88 12.8998 82.76C12.9238 82.64 12.9478 82.526 12.9718 82.418C12.9958 82.298 13.0318 82.148 13.0798 81.968C13.1398 81.788 13.2178 81.542 13.3138 81.23L15.7078 73.4H17.7958L13.7818 86H12.4318L9.10181 78.116L9.26381 78.188L6.05981 86H4.7458ZM19.8315 86V76.55H21.6855V86H19.8315ZM20.7315 74.462C20.3355 74.462 20.0295 74.36 19.8135 74.156C19.5975 73.952 19.4895 73.664 19.4895 73.292C19.4895 72.944 19.5975 72.662 19.8135 72.446C20.0415 72.23 20.3475 72.122 20.7315 72.122C21.1275 72.122 21.4335 72.224 21.6495 72.428C21.8655 72.632 21.9735 72.92 21.9735 73.292C21.9735 73.64 21.8595 73.922 21.6315 74.138C21.4155 74.354 21.1155 74.462 20.7315 74.462ZM24.5353 86V76.55H26.3893V78.494L26.0653 78.71C26.1853 78.29 26.4193 77.906 26.7673 77.558C27.1153 77.198 27.5293 76.91 28.0093 76.694C28.4893 76.466 28.9813 76.352 29.4853 76.352C30.2053 76.352 30.8053 76.496 31.2853 76.784C31.7653 77.06 32.1253 77.486 32.3653 78.062C32.6053 78.638 32.7253 79.364 32.7253 80.24V86H30.8713V80.366C30.8713 79.826 30.7993 79.382 30.6553 79.034C30.5113 78.674 30.2893 78.416 29.9893 78.26C29.6893 78.092 29.3173 78.02 28.8733 78.044C28.5133 78.044 28.1833 78.104 27.8833 78.224C27.5833 78.332 27.3193 78.488 27.0913 78.692C26.8753 78.896 26.7013 79.136 26.5693 79.412C26.4493 79.676 26.3893 79.964 26.3893 80.276V86H25.4713C25.3153 86 25.1593 86 25.0033 86C24.8473 86 24.6913 86 24.5353 86ZM35.2403 86V76.55H37.0943V78.494L36.7703 78.71C36.8903 78.29 37.1243 77.906 37.4723 77.558C37.8203 77.198 38.2343 76.91 38.7143 76.694C39.1943 76.466 39.6863 76.352 40.1903 76.352C40.9103 76.352 41.5103 76.496 41.9903 76.784C42.4703 77.06 42.8303 77.486 43.0703 78.062C43.3103 78.638 43.4303 79.364 43.4303 80.24V86H41.5763V80.366C41.5763 79.826 41.5043 79.382 41.3603 79.034C41.2163 78.674 40.9943 78.416 40.6943 78.26C40.3943 78.092 40.0223 78.02 39.5783 78.044C39.2183 78.044 38.8883 78.104 38.5883 78.224C38.2883 78.332 38.0243 78.488 37.7963 78.692C37.5803 78.896 37.4063 79.136 37.2743 79.412C37.1543 79.676 37.0943 79.964 37.0943 80.276V86H36.1763C36.0203 86 35.8643 86 35.7083 86C35.5523 86 35.3963 86 35.2403 86ZM46.2514 86V76.55H48.1054V86H46.2514ZM47.1514 74.462C46.7554 74.462 46.4494 74.36 46.2334 74.156C46.0174 73.952 45.9094 73.664 45.9094 73.292C45.9094 72.944 46.0174 72.662 46.2334 72.446C46.4614 72.23 46.7674 72.122 47.1514 72.122C47.5474 72.122 47.8534 72.224 48.0694 72.428C48.2854 72.632 48.3934 72.92 48.3934 73.292C48.3934 73.64 48.2794 73.922 48.0514 74.138C47.8354 74.354 47.5354 74.462 47.1514 74.462ZM50.9552 86V76.55H52.8092V78.494L52.4852 78.71C52.6052 78.29 52.8392 77.906 53.1872 77.558C53.5352 77.198 53.9492 76.91 54.4292 76.694C54.9092 76.466 55.4012 76.352 55.9052 76.352C56.6252 76.352 57.2252 76.496 57.7052 76.784C58.1852 77.06 58.5452 77.486 58.7852 78.062C59.0252 78.638 59.1452 79.364 59.1452 80.24V86H57.2912V80.366C57.2912 79.826 57.2192 79.382 57.0752 79.034C56.9312 78.674 56.7092 78.416 56.4092 78.26C56.1092 78.092 55.7372 78.02 55.2932 78.044C54.9332 78.044 54.6032 78.104 54.3032 78.224C54.0032 78.332 53.7392 78.488 53.5112 78.692C53.2952 78.896 53.1212 79.136 52.9892 79.412C52.8692 79.676 52.8092 79.964 52.8092 80.276V86H51.8912C51.7352 86 51.5792 86 51.4232 86C51.2672 86 51.1112 86 50.9552 86ZM65.8903 90.14C65.2183 90.14 64.5463 90.032 63.8743 89.816C63.2143 89.612 62.6803 89.342 62.2723 89.006L62.9563 87.566C63.1963 87.746 63.4783 87.902 63.8023 88.034C64.1263 88.178 64.4683 88.286 64.8283 88.358C65.1883 88.442 65.5423 88.484 65.8903 88.484C66.5503 88.484 67.1023 88.376 67.5463 88.16C67.9903 87.944 68.3263 87.626 68.5543 87.206C68.7823 86.786 68.8963 86.264 68.8963 85.64V83.822L69.0943 83.948C69.0343 84.32 68.8363 84.68 68.5003 85.028C68.1763 85.364 67.7683 85.64 67.2763 85.856C66.7843 86.072 66.2803 86.18 65.7643 86.18C64.8643 86.18 64.0603 85.97 63.3523 85.55C62.6563 85.118 62.1043 84.536 61.6963 83.804C61.2883 83.06 61.0843 82.214 61.0843 81.266C61.0843 80.318 61.2823 79.478 61.6783 78.746C62.0863 78.002 62.6383 77.42 63.3343 77C64.0423 76.568 64.8343 76.352 65.7103 76.352C66.0703 76.352 66.4183 76.4 66.7543 76.496C67.0903 76.58 67.4023 76.706 67.6903 76.874C67.9783 77.03 68.2363 77.204 68.4643 77.396C68.6923 77.588 68.8783 77.792 69.0223 78.008C69.1663 78.224 69.2563 78.428 69.2923 78.62L68.8963 78.764V76.55H70.7503V85.424C70.7503 86.18 70.6363 86.846 70.4083 87.422C70.1923 88.01 69.8743 88.502 69.4543 88.898C69.0343 89.306 68.5243 89.612 67.9243 89.816C67.3243 90.032 66.6463 90.14 65.8903 90.14ZM65.9623 84.47C66.5503 84.47 67.0723 84.332 67.5283 84.056C67.9843 83.78 68.3383 83.402 68.5903 82.922C68.8423 82.442 68.9683 81.89 68.9683 81.266C68.9683 80.642 68.8363 80.09 68.5723 79.61C68.3203 79.118 67.9663 78.734 67.5103 78.458C67.0663 78.182 66.5503 78.044 65.9623 78.044C65.3863 78.044 64.8703 78.188 64.4143 78.476C63.9703 78.752 63.6163 79.136 63.3523 79.628C63.1003 80.108 62.9743 80.654 62.9743 81.266C62.9743 81.878 63.1003 82.43 63.3523 82.922C63.6163 83.402 63.9703 83.78 64.4143 84.056C64.8703 84.332 65.3863 84.47 65.9623 84.47ZM82.4086 86.18C81.5326 86.18 80.7466 85.964 80.0506 85.532C79.3666 85.1 78.8206 84.512 78.4126 83.768C78.0166 83.024 77.8186 82.19 77.8186 81.266C77.8186 80.342 78.0166 79.508 78.4126 78.764C78.8206 78.02 79.3666 77.432 80.0506 77C80.7466 76.568 81.5326 76.352 82.4086 76.352C83.2486 76.352 84.0106 76.526 84.6946 76.874C85.3906 77.21 85.9186 77.672 86.2786 78.26L85.2526 79.52C85.0606 79.244 84.8146 78.992 84.5146 78.764C84.2146 78.536 83.8966 78.356 83.5606 78.224C83.2246 78.092 82.9006 78.026 82.5886 78.026C82.0126 78.026 81.4966 78.17 81.0406 78.458C80.5966 78.734 80.2426 79.118 79.9786 79.61C79.7146 80.102 79.5826 80.654 79.5826 81.266C79.5826 81.878 79.7206 82.43 79.9966 82.922C80.2726 83.402 80.6386 83.786 81.0946 84.074C81.5506 84.362 82.0546 84.506 82.6066 84.506C82.9306 84.506 83.2426 84.452 83.5426 84.344C83.8546 84.236 84.1546 84.074 84.4426 83.858C84.7306 83.642 85.0006 83.378 85.2526 83.066L86.2786 84.326C85.8946 84.866 85.3426 85.31 84.6226 85.658C83.9146 86.006 83.1766 86.18 82.4086 86.18ZM88.0274 86V72.68H89.8814V78.494L89.5574 78.71C89.6774 78.29 89.9114 77.906 90.2594 77.558C90.6074 77.198 91.0214 76.91 91.5014 76.694C91.9814 76.466 92.4734 76.352 92.9774 76.352C93.6974 76.352 94.2974 76.496 94.7774 76.784C95.2574 77.06 95.6174 77.486 95.8574 78.062C96.0974 78.638 96.2174 79.364 96.2174 80.24V86H94.3634V80.366C94.3634 79.826 94.2914 79.382 94.1474 79.034C94.0034 78.674 93.7814 78.416 93.4814 78.26C93.1814 78.092 92.8094 78.02 92.3654 78.044C92.0054 78.044 91.6754 78.104 91.3754 78.224C91.0754 78.332 90.8114 78.488 90.5834 78.692C90.3674 78.896 90.1934 79.136 90.0614 79.412C89.9414 79.676 89.8814 79.964 89.8814 80.276V86H88.9634C88.8074 86 88.6514 86 88.4954 86C88.3394 86 88.1834 86 88.0274 86ZM102.981 86.18C102.057 86.18 101.229 85.97 100.497 85.55C99.7765 85.118 99.2065 84.536 98.7865 83.804C98.3665 83.06 98.1565 82.214 98.1565 81.266C98.1565 80.318 98.3665 79.478 98.7865 78.746C99.2065 78.002 99.7765 77.42 100.497 77C101.229 76.568 102.057 76.352 102.981 76.352C103.893 76.352 104.709 76.568 105.429 77C106.161 77.42 106.737 78.002 107.157 78.746C107.577 79.478 107.787 80.318 107.787 81.266C107.787 82.214 107.577 83.06 107.157 83.804C106.737 84.536 106.161 85.118 105.429 85.55C104.709 85.97 103.893 86.18 102.981 86.18ZM102.981 84.488C103.545 84.488 104.049 84.35 104.493 84.074C104.937 83.786 105.285 83.402 105.537 82.922C105.789 82.43 105.909 81.878 105.897 81.266C105.909 80.642 105.789 80.09 105.537 79.61C105.285 79.118 104.937 78.734 104.493 78.458C104.049 78.182 103.545 78.044 102.981 78.044C102.417 78.044 101.907 78.188 101.451 78.476C101.007 78.752 100.659 79.136 100.407 79.628C100.155 80.108 100.035 80.654 100.047 81.266C100.035 81.878 100.155 82.43 100.407 82.922C100.659 83.402 101.007 83.786 101.451 84.074C101.907 84.35 102.417 84.488 102.981 84.488ZM110.113 86V76.55H111.967V86H110.113ZM111.013 74.462C110.617 74.462 110.311 74.36 110.095 74.156C109.879 73.952 109.771 73.664 109.771 73.292C109.771 72.944 109.879 72.662 110.095 72.446C110.323 72.23 110.629 72.122 111.013 72.122C111.409 72.122 111.715 72.224 111.931 72.428C112.147 72.632 112.255 72.92 112.255 73.292C112.255 73.64 112.141 73.922 111.913 74.138C111.697 74.354 111.397 74.462 111.013 74.462ZM118.831 86.18C117.955 86.18 117.169 85.964 116.473 85.532C115.789 85.1 115.243 84.512 114.835 83.768C114.439 83.024 114.241 82.19 114.241 81.266C114.241 80.342 114.439 79.508 114.835 78.764C115.243 78.02 115.789 77.432 116.473 77C117.169 76.568 117.955 76.352 118.831 76.352C119.671 76.352 120.433 76.526 121.117 76.874C121.813 77.21 122.341 77.672 122.701 78.26L121.675 79.52C121.483 79.244 121.237 78.992 120.937 78.764C120.637 78.536 120.319 78.356 119.983 78.224C119.647 78.092 119.323 78.026 119.011 78.026C118.435 78.026 117.919 78.17 117.463 78.458C117.019 78.734 116.665 79.118 116.401 79.61C116.137 80.102 116.005 80.654 116.005 81.266C116.005 81.878 116.143 82.43 116.419 82.922C116.695 83.402 117.061 83.786 117.517 84.074C117.973 84.362 118.477 84.506 119.029 84.506C119.353 84.506 119.665 84.452 119.965 84.344C120.277 84.236 120.577 84.074 120.865 83.858C121.153 83.642 121.423 83.378 121.675 83.066L122.701 84.326C122.317 84.866 121.765 85.31 121.045 85.658C120.337 86.006 119.599 86.18 118.831 86.18ZM128.859 86.18C127.887 86.18 127.023 85.976 126.267 85.568C125.523 85.148 124.935 84.578 124.503 83.858C124.083 83.138 123.873 82.31 123.873 81.374C123.873 80.63 123.993 79.952 124.233 79.34C124.473 78.728 124.803 78.2 125.223 77.756C125.655 77.3 126.165 76.952 126.753 76.712C127.353 76.46 128.001 76.334 128.697 76.334C129.309 76.334 129.879 76.454 130.407 76.694C130.935 76.922 131.391 77.24 131.775 77.648C132.171 78.056 132.471 78.542 132.675 79.106C132.891 79.658 132.993 80.264 132.981 80.924L132.963 81.716H125.241L124.827 80.24H131.361L131.091 80.546V80.114C131.055 79.718 130.923 79.364 130.695 79.052C130.467 78.74 130.179 78.494 129.831 78.314C129.483 78.134 129.105 78.044 128.697 78.044C128.049 78.044 127.503 78.17 127.059 78.422C126.615 78.662 126.279 79.022 126.051 79.502C125.823 79.97 125.709 80.552 125.709 81.248C125.709 81.908 125.847 82.484 126.123 82.976C126.399 83.456 126.789 83.828 127.293 84.092C127.797 84.356 128.379 84.488 129.039 84.488C129.507 84.488 129.939 84.41 130.335 84.254C130.743 84.098 131.181 83.816 131.649 83.408L132.585 84.722C132.297 85.01 131.943 85.262 131.523 85.478C131.115 85.694 130.677 85.868 130.209 86C129.753 86.12 129.303 86.18 128.859 86.18Z" fill="#293C8F"/>
<g clip-path="url(#clip0_3117_4797)">
<path d="M37.1818 41.4518L39.5903 36.8621L55.0487 7.36105H43.9863L31.0244 32.3524L18.294 7.36105H7L24.6598 41.4572L37.1818 41.4518Z" fill="#293C8F"/>
<path d="M69.048 41.4532V38.2025V33.9175V7.35971H58.8643V33.9175V41.4532H60.8125H69.048Z" fill="#293C8F"/>
<path d="M106.202 24.7896C118.59 11.7774 126.763 0.333055 127 0C126.752 0.235576 116.715 9.88605 102.467 21.0136L102.464 21.0163C92.4603 11.4281 84.0203 7.36106 84.0203 7.36106H74.6055C83.078 13.8218 89.9232 20.7361 95.0489 26.6403C85.0533 33.9933 73.6917 41.4166 62.4627 46.7712C44.482 55.3494 27.0307 45.9101 18.4932 39.7825C18.634 39.9734 27.4206 51.8104 35.6927 56.1428C35.6995 56.1469 35.7076 56.1523 35.7144 56.1536C44.1665 60.3683 54.5128 62.0159 65.9381 56.423C77.9618 50.5364 89.5197 41.1743 99.2865 31.7553C103.841 37.5256 106.191 41.4545 106.191 41.4545H118.862C114.841 34.8489 110.457 29.3359 106.197 24.7936L106.201 24.7896H106.202Z" fill="#293C8F"/>
<path d="M125.858 0.444061C125.858 0.444061 120.868 4.81439 115.672 8.39C115.672 8.39 113.567 6.38625 110.801 4.32564C119.218 2.78899 125.86 0.444061 125.86 0.444061H125.858Z" fill="#AB218E"/>
</g>
<defs>
<clipPath id="clip0_3117_4797">
<rect width="120" height="60" fill="white" transform="translate(7)"/>
</clipPath>
</defs>
</svg>
